HIERARCHY
ROOT Pelvis
{
	OFFSET -0.217368 -24.078917 2.858379
	CHANNELS 6 Xposition Yposition Zposition Zrotation Yrotation Xrotation 
	JOINT Left_hip
	{
		OFFSET 5.858135 -8.228005 -1.766408
		CHANNELS 3 Zrotation Yrotation Xrotation
		JOINT Left_knee
		{
			OFFSET 4.345143 -38.646942 0.803700
			CHANNELS 3 Zrotation Yrotation Xrotation
			JOINT Left_ankle
			{
				OFFSET -1.479033 -42.687447 -3.742800
				CHANNELS 3 Zrotation Yrotation Xrotation
				JOINT Left_foot
				{
					OFFSET 4.105436 -6.028605 12.204244
					CHANNELS 3 Zrotation Yrotation Xrotation
					End Site
					{
						OFFSET 0.000000 0.000000 0.000000
					}
				}
			}
		}
	}
	JOINT Right_hip
	{
		OFFSET -6.030973 -9.051328 -1.354253
		CHANNELS 3 Zrotation Yrotation Xrotation
		JOINT Right_knee
		{
			OFFSET -4.325663 -38.368790 -0.484304
			CHANNELS 3 Zrotation Yrotation Xrotation
			JOINT Right_ankle
			{
				OFFSET 1.905555 -42.004566 -3.456167
				CHANNELS 3 Zrotation Yrotation Xrotation
				JOINT Right_foot
				{
					OFFSET -3.483987 -6.210554 13.032330
					CHANNELS 3 Zrotation Yrotation Xrotation
					End Site
					{
						OFFSET 0.000000 0.000000 0.000000
					}
				}
			}
		}
	}
	JOINT Spine1
	{
		OFFSET 0.443945 12.440353 -3.838522
		CHANNELS 3 Zrotation Yrotation Xrotation
		JOINT Spine2
		{
			OFFSET 0.448844 13.795640 2.682033
			CHANNELS 3 Zrotation Yrotation Xrotation
			JOINT Spine3
			{
				OFFSET -0.226460 5.603239 0.285504
				CHANNELS 3 Zrotation Yrotation Xrotation
				JOINT Neck
				{
					OFFSET -1.339018 21.163553 -3.346758
					CHANNELS 3 Zrotation Yrotation Xrotation
					JOINT Head
					{
						OFFSET 1.011321 8.893734 5.040987
						CHANNELS 3 Zrotation Yrotation Xrotation
						End Site
						{
							OFFSET 0.000000 0.000000 0.000000
						}
					}
				}
				JOINT Left_collar
				{
					OFFSET 7.170247 11.399971 -1.889817
					CHANNELS 3 Zrotation Yrotation Xrotation
					JOINT Left_shoulder
					{
						OFFSET 12.292140 4.520507 -1.904600
						CHANNELS 3 Zrotation Yrotation Xrotation
						JOINT Left_elbow
						{
							OFFSET 25.533188 -1.564902 -2.294648
							CHANNELS 3 Zrotation Yrotation Xrotation
							JOINT Left_wrist
							{
								OFFSET 26.570929 1.269810 -0.737473
								CHANNELS 3 Zrotation Yrotation Xrotation
								JOINT Left_palm
								{
									OFFSET 8.669054 -1.063602 -1.559429
									CHANNELS 3 Zrotation Yrotation Xrotation
									End Site
									{
										OFFSET 0.000000 0.000000 0.000000
									}
								}
							}
						}
					}
				}
				JOINT Right_collar
				{
					OFFSET -8.295364 11.247234 -2.370738
					CHANNELS 3 Zrotation Yrotation Xrotation
					JOINT Right_shoulder
					{
						OFFSET -11.322830 4.685326 -0.847207
						CHANNELS 3 Zrotation Yrotation Xrotation
						JOINT Right_elbow
						{
							OFFSET -26.012751 -1.436928 -3.126872
							CHANNELS 3 Zrotation Yrotation Xrotation
							JOINT Right_wrist
							{
								OFFSET -26.910841 0.679372 -0.602677
								CHANNELS 3 Zrotation Yrotation Xrotation
								JOINT Right_palm
								{
									OFFSET -8.875370 -0.865157 -1.010708
									CHANNELS 3 Zrotation Yrotation Xrotation
									End Site
									{
										OFFSET 0.000000 0.000000 0.000000
									}
								}
							}
						}
					}
				}
			}
		}
	}
}
MOTION
Frames: 13
Frame Time: 0.016667
-4.624972 73.153915 -117.865555 0.515206 -2.842568 4.274655 9.710052 -0.378638 -39.491328 -12.482436 5.892363 52.252452 6.721951 16.004747 18.884901 0.000000 0.000000 0.000000 -2.490568 1.528133 -18.710602 8.598481 -1.786940 23.285995 -5.415674 -14.379963 5.865750 0.000000 0.000000 0.000000 2.234067 -1.671998 26.902204 -5.114567 1.939943 -20.834563 1.713442 13.694456 31.434027 10.954635 -12.753924 15.194377 0.000000 0.000000 0.000000 -12.046491 -4.247243 0.717983 -32.429243 6.325752 -4.956022 16.594617 -77.727868 -10.012178 0.000000 0.000000 0.000000 0.000000 0.000000 0.000000 30.101929 1.299809 -2.346451 20.073538 3.852716 -1.222754 -27.104741 42.001716 -8.646327 0.000000 0.000000 0.000000 0.000000 0.000000 0.000000 
-4.273636 73.046097 -120.140579 0.928826 -1.591421 5.769636 8.804308 -0.618753 -34.881643 -11.563614 5.973654 59.052477 6.847480 16.025466 17.054524 0.000000 0.000000 0.000000 -4.504005 1.423194 -21.627932 10.321109 -2.353909 23.581915 -6.176418 -15.970721 5.975027 0.000000 0.000000 0.000000 3.910336 -1.982998 25.563199 -6.136787 2.181926 -21.938821 0.359498 12.293681 31.513294 9.864500 -11.617199 15.207224 0.000000 0.000000 0.000000 -11.648350 -4.435559 0.828319 -33.807592 6.208092 -5.160495 20.750911 -77.053207 -13.212896 0.000000 0.000000 0.000000 0.000000 0.000000 0.000000 29.472313 1.155284 -2.374882 21.859921 5.098882 -1.141485 -23.632032 41.155406 -7.163793 0.000000 0.000000 0.000000 0.000000 0.000000 0.000000 
-3.740556 72.646706 -122.319656 0.676146 -1.972250 5.872451 7.854187 -0.738335 -28.012006 -10.140083 5.175480 61.762581 5.713505 14.259375 15.605044 0.000000 0.000000 0.000000 -4.715503 1.493685 -23.381940 10.776043 -2.582650 24.930864 -6.328337 -16.442616 7.809534 0.000000 0.000000 0.000000 4.786385 -2.111358 24.654138 -7.047704 2.424870 -21.830094 1.064249 12.145250 31.175120 8.769569 -10.707036 16.099115 0.000000 0.000000 0.000000 -12.226411 -4.545323 0.844554 -35.047210 4.801306 -5.009430 21.198011 -76.321530 -13.393622 0.000000 0.000000 0.000000 0.000000 0.000000 0.000000 29.117991 0.726365 -2.617848 23.092382 5.706106 -1.100199 -24.007437 40.792798 -7.225704 0.000000 0.000000 0.000000 0.000000 0.000000 0.000000 
-3.043750 72.147621 -124.574020 1.267224 -1.776422 7.114435 5.453134 -0.996458 -21.165175 -7.961630 3.340916 58.415336 4.970619 13.146780 15.407805 0.000000 0.000000 0.000000 -6.615526 1.298027 -26.883461 12.777337 -3.351619 26.126190 -7.327690 -18.529167 11.185926 0.000000 0.000000 0.000000 4.361341 -1.890117 23.152776 -7.241148 2.466532 -22.044380 1.057875 10.967799 30.478396 7.873677 -9.249729 14.012474 0.000000 0.000000 0.000000 -12.730658 -4.983364 1.019782 -34.862325 3.254010 -4.585558 13.504489 -75.125904 -7.172632 0.000000 0.000000 0.000000 0.000000 0.000000 0.000000 28.703414 0.928425 -2.439909 24.842408 7.198570 -0.913519 -21.780190 39.055180 -6.099536 0.000000 0.000000 0.000000 0.000000 0.000000 0.000000 
-2.269517 71.583557 -127.000961 1.519769 -1.890586 8.410088 3.875175 -0.927387 -15.281348 -6.488169 2.038965 50.761942 5.490523 14.097195 16.929518 0.000000 0.000000 0.000000 -8.391873 0.982504 -29.269319 14.944538 -4.142356 26.473769 -7.814503 -19.411615 11.378021 0.000000 0.000000 0.000000 3.810137 -1.609803 21.050663 -6.253926 2.198486 -22.357870 -0.815427 10.267973 30.923820 6.541172 -7.580308 12.558800 0.000000 0.000000 0.000000 -12.325588 -4.594167 0.861359 -34.451002 1.256860 -4.023406 15.411156 -75.097315 -8.635643 0.000000 0.000000 0.000000 0.000000 0.000000 0.000000 28.552248 1.490363 -2.058805 26.579731 7.078745 -0.973554 -18.352837 39.954901 -5.062681 0.000000 0.000000 0.000000 0.000000 0.000000 0.000000 
-1.423201 70.978073 -129.731644 1.728390 0.239576 8.604537 2.800248 -0.680477 -9.668545 -2.845484 -0.107466 42.454986 4.073851 11.827903 15.438110 0.000000 0.000000 0.000000 -10.627568 0.473891 -32.055028 16.345026 -4.850392 28.304559 -9.076377 -21.549742 15.084205 0.000000 0.000000 0.000000 5.085510 -1.837750 20.810100 -7.091843 2.423116 -22.152057 -3.261606 7.412830 29.720852 3.800742 -4.005901 7.066789 0.000000 0.000000 0.000000 -12.204770 -4.883895 1.002243 -33.569328 -0.495541 -3.485056 12.597204 -73.728781 -6.311297 0.000000 0.000000 0.000000 0.000000 0.000000 0.000000 29.642789 1.410046 -2.224537 27.456802 5.208765 -1.349104 -12.414244 41.417294 -3.129405 0.000000 0.000000 0.000000 0.000000 0.000000 0.000000 
-0.490640 70.476906 -132.711914 1.160141 1.548194 9.163145 2.188942 -0.567882 -7.499192 -0.366292 -1.157513 36.093910 4.327114 11.599565 11.836330 0.000000 0.000000 0.000000 -11.209227 0.325199 -34.011137 16.437250 -4.933528 28.716561 -9.899512 -22.834305 16.163522 0.000000 0.000000 0.000000 5.140421 -1.866982 21.019479 -7.509678 2.487893 -23.120472 -3.508636 6.052179 29.030715 4.971899 -4.759454 5.240515 0.000000 0.000000 0.000000 -11.351441 -6.360166 1.719300 -32.318116 -3.310693 -2.690320 12.984399 -69.806956 -6.137449 0.000000 0.000000 0.000000 0.000000 0.000000 0.000000 29.626435 0.300640 -2.956697 28.282803 3.963146 -1.627427 -9.633937 41.989822 -2.162874 0.000000 0.000000 0.000000 0.000000 0.000000 0.000000 
0.535840 69.539032 -135.762024 0.750225 1.583290 8.556827 2.389290 -0.527340 -7.077840 0.248421 -1.359070 34.316431 4.884052 11.704999 7.251643 0.000000 0.000000 0.000000 -11.331558 0.293025 -36.422691 16.179526 -4.872881 29.026442 -10.648993 -23.889241 17.932897 0.000000 0.000000 0.000000 4.002574 -1.775894 22.681730 -7.176813 2.429091 -22.533643 -4.058861 4.954062 27.498928 5.161164 -4.400206 1.997282 0.000000 0.000000 0.000000 -11.449518 -7.103063 2.054506 -30.782682 -6.212772 -1.921115 11.689255 -65.390686 -4.810510 0.000000 0.000000 0.000000 0.000000 0.000000 0.000000 30.567140 -0.220642 -3.419207 29.224126 3.747775 -1.720209 -9.013019 42.984291 -1.991790 0.000000 0.000000 0.000000 0.000000 0.000000 0.000000 
1.650872 68.581696 -138.754822 0.039422 2.251867 7.533581 2.733420 -0.503818 -6.985130 0.430683 -1.408782 33.656707 5.551095 11.807326 1.196573 0.000000 0.000000 0.000000 -11.650608 0.194327 -37.271071 16.781943 -4.975288 27.998196 -12.147300 -25.991206 19.369746 0.000000 0.000000 0.000000 3.268190 -1.745139 24.384844 -6.516181 2.269198 -22.272346 -5.008020 3.869988 27.406048 4.687472 -3.771334 0.400110 0.000000 0.000000 0.000000 -12.350500 -8.325730 2.597481 -28.357353 -8.094858 -1.411022 11.915437 -63.273491 -4.753700 0.000000 0.000000 0.000000 0.000000 0.000000 0.000000 31.522765 0.325417 -3.167148 29.857847 3.012002 -1.909207 -10.401519 45.257613 -2.676172 0.000000 0.000000 0.000000 0.000000 0.000000 0.000000 
2.837619 67.908287 -141.605423 -0.518090 2.416441 5.584770 3.066894 -0.608297 -8.854479 -0.379949 -1.180286 36.881138 6.438887 12.975326 -2.318899 0.000000 0.000000 0.000000 -12.033399 0.083651 -35.771842 16.292387 -4.632668 26.603025 -11.661791 -25.317630 18.994235 0.000000 0.000000 0.000000 2.537187 -1.719663 26.486547 -6.597950 2.268596 -22.863740 -5.009504 3.249292 27.880366 3.277918 -2.474991 -0.939247 0.000000 0.000000 0.000000 -13.885410 -9.264493 3.024544 -25.931701 -10.033450 -0.972809 11.068210 -60.912336 -4.037233 0.000000 0.000000 0.000000 0.000000 0.000000 0.000000 32.061373 0.387861 -3.189330 31.333235 2.141068 -2.193549 -7.873658 47.376526 -1.763973 0.000000 0.000000 0.000000 0.000000 0.000000 0.000000 
4.098979 67.455917 -144.263474 -1.024745 3.732914 4.677564 3.755241 -0.665081 -10.590704 -0.507670 -1.216049 39.513669 5.915461 11.589187 -3.643685 0.000000 0.000000 0.000000 -13.496860 -0.343591 -35.355731 16.677613 -4.515086 24.466148 -12.667899 -26.578404 20.758373 0.000000 0.000000 0.000000 2.545071 -1.738701 26.742967 -6.587193 2.267913 -22.808062 -5.116444 2.957756 28.428412 3.553983 -2.750908 -0.470898 0.000000 0.000000 0.000000 -14.576593 -10.725617 3.741259 -24.280831 -11.839671 -0.641372 11.275708 -59.838197 -4.068828 0.000000 0.000000 0.000000 0.000000 0.000000 0.000000 32.570192 0.165325 -3.406349 32.470841 0.322647 -2.696637 -7.090237 49.182072 -1.503169 0.000000 0.000000 0.000000 0.000000 0.000000 0.000000 
5.366322 67.459641 -146.687256 -0.935083 3.611943 3.677986 3.722714 -0.747897 -11.945799 -1.085148 -0.971998 40.770489 5.365163 10.234847 -4.212080 0.000000 0.000000 0.000000 -13.907942 -0.437226 -34.201072 14.641523 -3.490207 20.906180 -11.777320 -25.078308 23.243980 0.000000 0.000000 0.000000 1.084183 -1.420884 27.551794 -7.011635 2.370177 -22.941904 -4.995471 2.960799 28.964062 3.787023 -2.835651 -1.215657 0.000000 0.000000 0.000000 -14.937392 -11.703142 4.233143 -22.433297 -13.170044 -0.437278 13.063855 -60.461932 -5.160733 0.000000 0.000000 0.000000 0.000000 0.000000 0.000000 33.876187 0.403845 -3.399838 33.093285 -0.861400 -3.032646 -7.236208 49.810005 -1.592784 0.000000 0.000000 0.000000 0.000000 0.000000 0.000000 
6.587734 67.956688 -148.890594 -1.343800 3.927328 2.989132 3.396981 -0.822515 -12.659323 -1.334966 -0.861187 41.296803 5.265803 9.854895 -4.823870 0.000000 0.000000 0.000000 -14.072464 -0.463649 -33.393499 12.995630 -2.803086 18.457013 -12.261188 -25.315081 27.554085 0.000000 0.000000 0.000000 0.966391 -1.372469 27.198652 -7.288207 2.437534 -22.999582 -4.728881 2.781072 29.549251 3.502150 -2.644484 -0.981278 0.000000 0.000000 0.000000 -15.715801 -12.117906 4.459069 -20.896258 -13.907467 -0.351674 14.460499 -61.779298 -6.134928 0.000000 0.000000 0.000000 0.000000 0.000000 0.000000 34.307181 -0.244019 -3.919687 32.978765 -2.059862 -3.305811 -7.209339 49.760205 -1.578768 0.000000 0.000000 0.000000 0.000000 0.000000 0.000000 
